<?xml version="1.0" encoding="UTF-8" standalone="no"?>
<!-- Created with Inkscape (http://www.inkscape.org/) -->

<svg
   xmlns:dc="http://purl.org/dc/elements/1.1/"
   xmlns:cc="http://creativecommons.org/ns#"
   xmlns:rdf="http://www.w3.org/1999/02/22-rdf-syntax-ns#"
   xmlns:svg="http://www.w3.org/2000/svg"
   xmlns="http://www.w3.org/2000/svg"
   xmlns:sodipodi="http://sodipodi.sourceforge.net/DTD/sodipodi-0.dtd"
   xmlns:inkscape="http://www.inkscape.org/namespaces/inkscape"
   width="45.797798mm"
   height="14.716545mm"
   viewBox="0 0 162.27566 52.145238"
   id="svg2"
   version="1.1"
   inkscape:version="0.91 r13725"
   sodipodi:docname="bemyvoice_logo.svg"
   inkscape:export-filename="/home/elhombretecla/Escritorio/bemyvoice_logo.png"
   inkscape:export-xdpi="90"
   inkscape:export-ydpi="90">
  <defs
     id="defs4" />
  <sodipodi:namedview
     id="base"
     pagecolor="#ffffff"
     bordercolor="#666666"
     borderopacity="1.0"
     inkscape:pageopacity="0.0"
     inkscape:pageshadow="2"
     inkscape:zoom="3.959798"
     inkscape:cx="103.88012"
     inkscape:cy="-16.230703"
     inkscape:document-units="px"
     inkscape:current-layer="layer1"
     showgrid="false"
     inkscape:window-width="1920"
     inkscape:window-height="1056"
     inkscape:window-x="0"
     inkscape:window-y="24"
     inkscape:window-maximized="1"
     borderlayer="true"
     fit-margin-top="0"
     fit-margin-left="0"
     fit-margin-right="0"
     fit-margin-bottom="0" />
  <metadata
     id="metadata7">
    <rdf:RDF>
      <cc:Work
         rdf:about="">
        <dc:format>image/svg+xml</dc:format>
        <dc:type
           rdf:resource="http://purl.org/dc/dcmitype/StillImage" />
        <dc:title></dc:title>
      </cc:Work>
    </rdf:RDF>
  </metadata>
  <g
     inkscape:label="Capa 1"
     inkscape:groupmode="layer"
     id="layer1"
     transform="translate(-273.88187,-416.89971)">
    <g
       id="g26442">
      <path
         sodipodi:nodetypes="ccscccccccsccccccsszzcsccccccscccccccccccccccccccccsscccccccccccccccccscccscccccccccccsccccscccccsccscccccccccccscsccccccccccccsccccccccccccccccccccccccccccccc"
         inkscape:connector-curvature="0"
         id="text26331"
         d="m 288.75977,421.03711 c -1.30743,-0.0689 -2.3403,-0.006 -2.8418,0.0469 -1.02025,0.0598 -2.5345,0.17979 -4.58594,1.13477 -2.20462,1.02629 -4.66369,3.42299 -5.75,5.86719 l -0.0527,0.11914 c -0.0526,0.11779 0.15552,-0.34621 0.0547,-0.14453 l -0.31836,0.63672 -0.2246,0.67382 c -0.60586,1.81756 -0.89641,3.65663 -0.98243,5.29102 l -0.0137,0.26367 0,0.26172 c 0,0.56627 -0.0338,1.30942 -0.082,2.22656 l 0.0352,-0.4707 c -0.0538,0.53844 -0.19782,1.70591 -0.0547,3.38281 0.0345,0.86899 0.0744,1.69609 0.10352,2.09766 0.005,0.93372 0.02,1.6543 0.0137,1.76758 l -0.0156,0.27734 0,0.27734 c 0,0.94011 -0.0488,2.08716 -0.0488,3.52344 0,1.58968 0.033,1.9038 0.0488,4.05469 0.0158,2.15089 0.81598,5.31041 1.42857,6.96429 0.6126,1.65387 1.68667,3.03571 1.68667,3.03571 1.68022,1.97738 4.34818,3.8125 8.13867,3.8125 0.0363,0 1.48872,0.28772 4.24805,-0.19922 l 0.17968,-0.0312 0.17774,-0.0391 c 1.14362,-0.24506 3.12452,-0.82586 5.30859,-1.87696 1.24758,0.52569 2.56709,0.91029 3.95899,0.97657 l 0.23828,0.0117 0.23828,0 c 1.14937,0 1.91824,-0.0885 2.44922,-0.13672 l 0.29101,-0.0273 0.28711,-0.043 c 0.64303,-0.0965 1.77379,-0.20319 3.33203,-0.5 l 0.0449,-0.008 0.0449,-0.01 c 2.05212,-0.41043 4.10296,-1.45047 5.98046,-3.22657 2.68058,2.55004 7.24337,4.36553 11.37696,3.0625 0.64394,-0.2227 1.30039,-0.5172 1.95508,-0.9375 0.88179,0.70511 1.78568,1.25375 2.63476,1.5625 l 0.12696,0.0469 0.1289,0.041 c 3.443,1.14767 7.55298,-0.0399 10.10742,-1.81054 2.27908,1.1826 4.92134,2.12995 8.86719,1.36719 1.55101,-0.25471 3.82534,-0.69433 6.30859,-2.04883 l 0.0664,-0.0371 0.0664,-0.0371 c 1.82623,-1.03222 3.2972,-2.5792 4.48242,-4.22071 0.24535,0.44309 0.43157,0.87377 0.77734,1.3379 0.43146,0.58925 0.76045,1.00798 0.6543,0.85937 l -0.29883,-0.44531 c 1.17954,1.85356 3.55102,3.89956 6.10547,4.68554 2.55445,0.78599 4.72528,0.48861 6.15625,0.13086 0.57353,-0.14338 1.07394,-0.3111 1.21875,-0.35937 l 0.54688,-0.18164 0.51953,-0.24414 c 1.42607,-0.6655 2.42191,-1.397 3.16015,-2.02344 1.56734,0.94234 3.27311,1.72205 5.16406,1.99219 -0.40378,-0.0577 0.75039,0.83465 4.29493,-0.0488 0.78137,-0.14504 1.53536,-0.35915 2.25781,-0.62891 1.60695,0.73617 3.24898,1.10643 4.5,1.13086 0.75553,0.0148 1.71218,0.0332 1.66211,0.0332 l 0.87695,0 0.34375,0.0488 0.71094,0 c -1.09198,0 -0.85203,0.0488 0.72266,0.0488 -0.287,0 0.92311,0.18526 3.12109,-0.24218 0.78415,-0.14362 1.80419,-0.49351 2.85352,-0.97657 1.66707,0.42392 3.2889,0.64327 4.59179,0.57813 l -0.5,0.0137 0.72461,0 c 0.79451,0 1.58129,-0.1384 2.35742,-0.3125 1.54679,0.84978 3.21717,1.46802 5.03711,1.55469 l 0.23828,0.0117 0.23633,0 c 1.14938,0 1.92019,-0.0885 2.45117,-0.13672 l 0.28907,-0.0273 0.28906,-0.043 c 0.64302,-0.0965 1.77379,-0.20319 3.33203,-0.5 l 0.0449,-0.008 0.0449,-0.01 c 2.27812,-0.45563 4.58322,-1.54122 6.61329,-3.74024 2.02166,-2.24288 3.54727,-7.04156 2.58593,-10.40625 l -0.11133,-0.38672 -0.14062,-0.37695 c -0.15374,-0.40996 -0.48378,-0.76237 -0.7168,-1.15039 1.29274,-1.96384 2.2663,-4.4291 1.92969,-7.05469 -0.13272,-1.03518 -0.39528,-1.87911 -0.68945,-2.66211 0.862,-1.72078 1.46537,-3.52572 1.34179,-5.25586 l -0.0273,-0.38672 -0.0566,-0.38476 c -0.30211,-2.01407 -1.31646,-4.90435 -3.75977,-7.07617 -2.37125,-2.10779 -5.40537,-2.80995 -7.54882,-2.85157 -1.55464,-0.0578 -2.71171,-0.0606 -1.51563,0.0801 l 0.125,0.0156 c -2.21982,-0.28954 -4.51163,-0.18399 -6.68555,0.28125 -0.51123,0.10014 -1.3196,0.28976 -2.31836,0.70508 -0.65591,-0.1916 -1.47082,-0.40268 -2.70898,-0.50586 -1.3266,-0.11055 -2.61586,0.0352 -3.875,0.2832 -1.11092,-0.589 -2.33835,-1.06718 -3.73828,-1.34766 -1.81445,-0.3759 -2.95698,-0.32031 -3.23438,-0.32031 l -0.19922,0 -0.20117,0.008 c -0.73698,0.0295 -1.771,0.073 -2.83398,0.13672 -0.82083,0 -2.90395,0.14888 -5.08789,1.06641 -0.60509,-0.27277 -1.21678,-0.61585 -1.80078,-0.80469 -1.70331,-0.55581 -3.70293,-0.58078 -5.32813,-0.40625 l -0.008,0 c -2.90675,0.002 -4.95199,0.88694 -6.58594,2.23828 -1.9576,-0.2991 -3.95185,-0.23182 -5.5293,0.3418 l -0.54101,0.19726 -0.51367,0.25782 c 0.4032,-0.2016 0.16241,-0.10562 -0.62696,0.28906 -0.0518,0.0259 -0.0949,0.082 -0.14648,0.10937 -0.61325,-0.34033 -1.10289,-0.77925 -1.82812,-0.99414 -2.96798,-0.8794 -5.39856,-0.24019 -6.56446,0.14844 l -0.27734,0.0937 -0.27344,0.10938 c -0.93408,0.37363 -2.33859,1.15918 -3.75195,2.5332 -0.78182,-0.72968 -1.5807,-1.43465 -2.34961,-1.8457 -2.85972,-1.54267 -6.05739,-1.6428 -8.93164,-0.66016 -1.14485,-0.84418 -2.44055,-1.52029 -3.92969,-1.89258 l -0.0898,-0.0215 -0.0879,-0.0215 c -2.36712,-0.54625 -4.87907,-0.12621 -7.10157,0.875 -2.78155,-0.68839 -5.67913,-0.1079 -8.24023,1.13282 -0.082,-0.0356 -0.13543,-0.0966 -0.21875,-0.13086 -2.54618,-1.06722 -5.5743,-1.46335 -8.87891,-0.21875 -0.96695,0.36417 -1.88638,0.96156 -2.75781,1.65625 -0.16675,-0.16948 -0.218,-0.37499 -0.40039,-0.53711 -2.37126,-2.10779 -5.40733,-2.80995 -7.55078,-2.85157 -1.55464,-0.0578 -2.7117,-0.0606 -1.51563,0.0801 l 0.125,0.0156 c -2.21982,-0.28954 -4.51162,-0.18399 -6.68554,0.28125 -0.19265,0.0377 -0.57322,0.16635 -0.84571,0.22851 -1.75901,-0.92225 -3.52657,-1.51191 -5.30664,-1.80859 l -0.26953,-0.0449 -0.27148,-0.0312 c 0.76062,0.0845 -0.42056,-0.11869 -1.98828,-0.20508 z m 93.26171,0.66601 c -0.11189,0.0186 -0.39647,0.0611 -0.73437,0.10938 l 0.2793,-0.0195 0.45507,-0.0899 z m -85.1621,1.52344 0.19726,0.10742 c -0.0461,-0.0259 -0.0926,-0.0371 -0.13867,-0.0625 -0.0235,-0.0127 -0.0349,-0.0323 -0.0586,-0.0449 z m 55.86328,35.87699 -0.19727,0.17968 c 0.0222,-0.0196 0.0422,-0.0582 0.0644,-0.0781 0.044,-0.0401 0.0889,-0.0605 0.13282,-0.10156 z m -39.75586,1.20507 -0.45508,0.48633 c 0.071,-0.0711 0.12735,-0.19987 0.19726,-0.27734 0.0819,-0.0886 0.17692,-0.11653 0.25782,-0.20899 z"
         style="color:#000000;font-style:oblique;font-variant:normal;font-weight:bold;font-stretch:normal;font-size:30.16929817px;line-height:150%;font-family:Futura;-inkscape-font-specification:'Futura, Bold Oblique';text-indent:0;text-align:center;text-decoration:none;text-decoration-line:none;text-decoration-style:solid;text-decoration-color:#000000;letter-spacing:40.70843887px;word-spacing:0px;text-transform:none;direction:ltr;block-progression:tb;writing-mode:lr-tb;baseline-shift:baseline;text-anchor:middle;white-space:normal;clip-rule:nonzero;display:inline;overflow:visible;visibility:visible;opacity:1;isolation:auto;mix-blend-mode:normal;color-interpolation:sRGB;color-interpolation-filters:linearRGB;solid-color:#000000;solid-opacity:1;fill:#6369d1;fill-opacity:1;fill-rule:nonzero;stroke:none;stroke-width:20;stroke-linecap:butt;stroke-linejoin:miter;stroke-miterlimit:4;stroke-dasharray:none;stroke-dashoffset:0;stroke-opacity:1;color-rendering:auto;image-rendering:auto;shape-rendering:auto;text-rendering:auto;enable-background:accumulate" />
      <circle
         r="8.586297"
         cy="459.45865"
         cx="357.53275"
         id="path26337"
         style="color:#000000;clip-rule:nonzero;display:inline;overflow:visible;visibility:visible;opacity:1;isolation:auto;mix-blend-mode:normal;color-interpolation:sRGB;color-interpolation-filters:linearRGB;solid-color:#000000;solid-opacity:1;fill:#ffffff;fill-opacity:1;fill-rule:nonzero;stroke:#6369d1;stroke-width:2;stroke-linecap:butt;stroke-linejoin:miter;stroke-miterlimit:4;stroke-dasharray:none;stroke-dashoffset:0;stroke-opacity:1;color-rendering:auto;image-rendering:auto;shape-rendering:auto;text-rendering:auto;enable-background:accumulate" />
      <circle
         style="color:#000000;clip-rule:nonzero;display:inline;overflow:visible;visibility:visible;opacity:1;isolation:auto;mix-blend-mode:normal;color-interpolation:sRGB;color-interpolation-filters:linearRGB;solid-color:#000000;solid-opacity:1;fill:#ffffff;fill-opacity:1;fill-rule:nonzero;stroke:#6369d1;stroke-width:2;stroke-linecap:butt;stroke-linejoin:miter;stroke-miterlimit:4;stroke-dasharray:none;stroke-dashoffset:0;stroke-opacity:1;color-rendering:auto;image-rendering:auto;shape-rendering:auto;text-rendering:auto;enable-background:accumulate"
         id="circle26339"
         cx="313.40878"
         cy="425.98093"
         r="8.0812206" />
      <circle
         r="7.5148683"
         cy="425.47849"
         cx="427.64267"
         id="circle26341"
         style="color:#000000;clip-rule:nonzero;display:inline;overflow:visible;visibility:visible;opacity:1;isolation:auto;mix-blend-mode:normal;color-interpolation:sRGB;color-interpolation-filters:linearRGB;solid-color:#000000;solid-opacity:1;fill:#ffffff;fill-opacity:1;fill-rule:nonzero;stroke:#6369d1;stroke-width:2;stroke-linecap:butt;stroke-linejoin:miter;stroke-miterlimit:4;stroke-dasharray:none;stroke-dashoffset:0;stroke-opacity:1;color-rendering:auto;image-rendering:auto;shape-rendering:auto;text-rendering:auto;enable-background:accumulate" />
      <text
         sodipodi:linespacing="150%"
         id="text26324"
         y="454.64102"
         x="353.49121"
         style="font-style:oblique;font-variant:normal;font-weight:bold;font-stretch:normal;font-size:30.16929817px;line-height:150%;font-family:Futura;-inkscape-font-specification:'Futura, Bold Oblique';text-align:center;letter-spacing:40.70843887px;word-spacing:0px;writing-mode:lr-tb;text-anchor:middle;fill:#ffffff;fill-opacity:1;stroke:none;stroke-width:20;stroke-linecap:butt;stroke-linejoin:miter;stroke-miterlimit:4;stroke-dasharray:none;stroke-opacity:1"
         xml:space="preserve"><tspan
           style="font-style:normal;font-variant:normal;font-weight:normal;font-stretch:normal;font-size:48.27087784px;font-family:'Junkyard Plush DEMO';-inkscape-font-specification:'Junkyard Plush DEMO';letter-spacing:1.60902929px;fill:#ffffff;stroke:none;stroke-width:20;stroke-miterlimit:4;stroke-dasharray:none"
           y="454.64102"
           x="354.29572"
           id="tspan26326"
           sodipodi:role="line">Be my Voice</tspan></text>
      <path
         style="fill:#6369d1;fill-opacity:1;stroke:none"
         d="m 356.75835,465.20441 c -1.14674,-0.19245 -1.86096,-0.71562 -2.67826,-1.96182 -0.34052,-0.51924 -1.1198,-1.89777 -1.48947,-2.63485 -0.22259,-0.44384 -0.23448,-0.48781 -0.21672,-0.80192 0.0343,-0.60623 0.40669,-0.96179 1.01183,-0.96599 0.3905,-0.003 0.68442,0.1657 0.99607,0.57071 0.12609,0.16387 0.24913,0.29794 0.27342,0.29794 0.0248,0 0.0508,-1.01765 0.0593,-2.32703 l 0.0152,-2.32704 0.1382,-0.23511 c 0.24338,-0.41401 0.757,-0.60904 1.24503,-0.47276 0.12543,0.035 0.14566,0.0224 0.2097,-0.13087 0.16809,-0.40229 0.55043,-0.67643 0.94565,-0.67806 0.35807,-10e-4 0.55144,0.0851 0.79485,0.35584 l 0.2291,0.25481 0.19067,-0.0571 c 0.37599,-0.11264 0.75302,-0.0407 1.02152,0.19511 0.19746,0.17338 0.30408,0.41549 0.35206,0.79941 l 0.0347,0.27833 0.33654,-0.0241 c 0.43062,-0.0308 0.65367,0.0439 0.86372,0.2893 0.30102,0.35166 0.29866,0.32844 0.3204,3.15447 0.0262,3.40708 -0.0164,3.86163 -0.44575,4.75758 -0.41358,0.86299 -1.23384,1.47697 -2.22253,1.6636 -0.50483,0.0953 -1.416,0.0951 -1.98526,-4.4e-4 z m 1.90364,-0.54342 c 1.07062,-0.22478 1.79987,-0.95925 2.06631,-2.08111 0.0969,-0.40779 0.10064,-0.55653 0.0876,-3.44507 l -0.0136,-3.01887 -0.13966,-0.12011 c -0.14795,-0.12724 -0.37208,-0.15609 -0.53507,-0.0688 -0.22477,0.12029 -0.24608,0.26284 -0.24686,1.6511 -6.7e-4,1.42207 -0.0209,1.54568 -0.25549,1.57312 -0.29031,0.034 -0.29103,0.029 -0.29428,-1.9973 -10e-4,-1.01783 -0.0211,-1.96126 -0.0433,-2.0965 -0.0549,-0.33468 -0.23814,-0.49755 -0.51755,-0.46007 -0.10858,0.0146 -0.24453,0.0736 -0.30211,0.13112 -0.10233,0.10229 -0.10501,0.1486 -0.11884,2.05498 -0.0125,1.71549 -0.0238,1.96108 -0.0948,2.03949 -0.10089,0.11147 -0.25366,0.11425 -0.37243,0.007 -0.0855,-0.0774 -0.091,-0.21232 -0.091,-2.21981 0,-1.90484 -0.009,-2.15268 -0.0829,-2.27774 -0.16497,-0.27928 -0.47814,-0.32383 -0.72518,-0.10315 l -0.16256,0.14521 -0.0139,2.1879 c -0.0133,2.08855 -0.0183,2.19186 -0.10999,2.27484 -0.12904,0.11678 -0.33714,0.0629 -0.40048,-0.10372 -0.0274,-0.0721 -0.048,-0.85026 -0.048,-1.8131 0,-1.15537 -0.0178,-1.72599 -0.0566,-1.81119 -0.0871,-0.19123 -0.35397,-0.29855 -0.56727,-0.22816 -0.33589,0.11086 -0.3218,-0.0213 -0.3218,3.01872 0,1.60038 -0.0196,2.79981 -0.0469,2.87168 -0.0519,0.13654 -0.20085,0.20458 -0.34657,0.15833 -0.0522,-0.0166 -0.32077,-0.33103 -0.59692,-0.69882 -0.27614,-0.36779 -0.56209,-0.70803 -0.63544,-0.75609 -0.21083,-0.13815 -0.50125,-0.11509 -0.64424,0.0511 -0.25273,0.29381 -0.18813,0.46624 0.87973,2.34801 1.01972,1.79695 1.50876,2.33981 2.38115,2.6432 0.61845,0.21507 1.71363,0.28167 2.3691,0.14405 z"
         id="path26375"
         inkscape:connector-curvature="0" />
      <path
         style="fill:#6369d1;fill-opacity:1"
         d="m 427.14355,430.17466 c -0.60646,-0.0625 -1.12373,-0.20928 -1.67417,-0.47507 -1.00601,-0.48577 -1.77423,-1.25384 -2.26247,-2.26201 -0.22333,-0.46115 -0.34667,-0.84757 -0.43723,-1.36978 -0.0535,-0.30839 -0.0535,-1.19184 0,-1.50023 0.0906,-0.52221 0.2139,-0.90863 0.43723,-1.36978 0.48809,-1.00787 1.25459,-1.77437 2.26247,-2.26247 0.46114,-0.22332 0.84756,-0.34667 1.36977,-0.43722 0.30839,-0.0535 1.19185,-0.0535 1.50024,0 0.52221,0.0906 0.90863,0.2139 1.36977,0.43722 1.00788,0.4881 1.77438,1.2546 2.26247,2.26247 0.22333,0.46115 0.34667,0.84757 0.43723,1.36978 0.0535,0.30839 0.0535,1.19184 0,1.50023 -0.09,0.51902 -0.21348,0.90546 -0.43769,1.36978 -0.48577,1.00601 -1.25383,1.77422 -2.26201,2.26247 -0.4597,0.22262 -0.85617,0.34936 -1.3589,0.4344 -0.19925,0.0337 -1.00828,0.0607 -1.20671,0.0402 z m 0.82621,-0.705 c 1.6482,-0.15542 3.05312,-1.27053 3.57461,-2.83723 0.34353,-1.03207 0.27076,-2.15356 -0.20306,-3.12957 -0.91484,-1.88441 -3.08342,-2.80045 -5.06678,-2.14027 -2.18149,0.72612 -3.36591,3.09007 -2.64036,5.26984 0.61027,1.83344 2.42017,3.01784 4.33559,2.83723 z m -0.73924,-1.03462 c -0.59155,-0.0896 -1.02859,-0.25486 -1.47849,-0.55914 -0.39839,-0.26944 -0.85096,-0.7834 -1.06447,-1.20886 -0.11735,-0.23386 -0.22921,-0.55609 -0.22921,-0.6603 0,-0.17814 0.1631,-0.34117 0.34131,-0.34117 0.18547,0 0.28494,0.0903 0.37349,0.33914 0.31606,0.88821 1.01645,1.50157 1.93778,1.697 0.12593,0.0267 0.27834,0.0392 0.47834,0.0392 0.42631,0 0.72732,-0.0697 1.1216,-0.25991 0.5948,-0.28686 1.0569,-0.81387 1.29312,-1.47477 0.0892,-0.2497 0.18935,-0.34066 0.37489,-0.34066 0.17821,0 0.34131,0.16303 0.34131,0.34117 0,0.10421 -0.11186,0.42644 -0.22921,0.6603 -0.14289,0.28474 -0.33827,0.54723 -0.60647,0.81481 -0.47723,0.47612 -1.00532,0.76707 -1.63864,0.9028 -0.20542,0.044 -0.84709,0.0759 -1.01535,0.0504 z m -1.20374,-3.49305 c -0.0402,-0.0129 -0.12419,-0.0701 -0.1866,-0.12709 -0.44936,-0.41069 -0.44965,-1.36652 -5.3e-4,-1.77698 0.22829,-0.20864 0.48794,-0.20864 0.71622,0 0.44882,0.4102 0.44882,1.36629 0,1.77649 -0.15966,0.14592 -0.33752,0.18881 -0.52908,0.12758 z m 2.78304,0 c -0.0402,-0.0129 -0.12419,-0.0701 -0.1866,-0.12709 -0.44936,-0.41069 -0.44965,-1.36652 -5.3e-4,-1.77698 0.22829,-0.20864 0.48794,-0.20864 0.71622,0 0.44882,0.4102 0.44882,1.36629 0,1.77649 -0.15966,0.14592 -0.33752,0.18881 -0.52908,0.12758 z"
         id="path26394"
         inkscape:connector-curvature="0" />
      <path
         id="path26413"
         d="m 313.26172,420.88086 c -0.0392,0.0108 -0.0473,0.0209 -0.0742,0.0391 -0.027,0.0182 -0.0621,0.0438 -0.11328,0.082 -0.10226,0.0765 -0.26464,0.20121 -0.52149,0.40235 -0.51368,0.40227 -1.40657,1.10909 -2.95507,2.33593 -0.27614,0.21878 -0.52849,0.42244 -0.71289,0.57227 -0.0922,0.0749 -0.16765,0.13514 -0.22071,0.17969 -0.0265,0.0223 -0.0471,0.041 -0.0625,0.0547 -0.008,0.007 -0.0137,0.0119 -0.0195,0.0176 l -0.01,0.01 c -0.002,0.002 -0.005,0.006 -0.008,0.01 -0.002,0.002 -0.006,0.008 -0.006,0.008 -1e-4,1.7e-4 -0.008,0.0174 -0.008,0.0176 -8.5e-4,0.003 -0.005,0.0157 -0.006,0.0195 -7.7e-4,0.004 3.6e-4,0.007 0,0.01 -7.2e-4,0.006 -0.002,0.0113 -0.002,0.0176 -8.9e-4,0.0126 -9.5e-4,0.028 -0.002,0.0469 -10e-4,0.0377 -0.005,0.0904 -0.006,0.15235 -0.002,0.12379 -0.004,0.28987 -0.004,0.46875 l 0,0.69531 0.0918,0.0762 c 0.0543,0.0457 0.12846,0.0703 0.20117,0.0703 0.0431,0 0.0994,-0.0101 0.15039,-0.0391 0.051,-0.029 0.10456,-0.0711 0.20117,-0.14648 0.0301,-0.0235 0.0532,-0.0404 0.0801,-0.0606 0.002,0.0804 0.006,0.17465 0.008,0.31836 0.004,0.34032 0.006,0.86139 0.008,1.58008 l 0.006,2.12305 0.0723,0.0762 c 0.0335,0.0362 0.0604,0.0647 0.11719,0.0879 0,0 0.002,0.002 0.002,0.002 l 0.18359,0.0742 -0.0156,-0.0625 c 0.0617,0.002 0.1364,0.007 0.23242,0.008 0.21624,0.003 0.50877,0.006 0.82617,0.006 0.63211,6.4e-4 0.94105,4.2e-4 1.11328,-0.0137 0.0861,-0.007 0.1427,-0.0157 0.19336,-0.0449 0.0501,-0.0289 0.0744,-0.0755 0.0879,-0.10156 l 0,-0.002 c 0.031,-0.0594 0.0312,-0.11463 0.0352,-0.2832 0.004,-0.16972 0.006,-0.45569 0.006,-0.95312 0,-0.32856 5.3e-4,-0.62819 0.004,-0.85547 0.003,-0.22728 0.0111,-0.39564 0.0137,-0.41602 0.0668,-0.53261 0.44576,-0.95915 0.94531,-1.07031 0.17276,-0.0384 0.45176,-0.0246 0.61523,0.0312 0.43972,0.14991 0.75177,0.52995 0.81055,0.98242 3.3e-4,0.002 0.006,0.0599 0.008,0.13477 0.002,0.0748 0.002,0.17464 0.004,0.29296 0.003,0.23664 0.006,0.54437 0.006,0.86719 3e-4,0.56602 8.6e-4,0.8601 0.006,1.02344 0.002,0.0817 0.005,0.1308 0.0117,0.16992 0.007,0.0391 0.0216,0.0749 0.0332,0.0937 0.0363,0.0595 0.0971,0.10344 0.16406,0.12305 0.0436,0.0128 0.0649,0.009 0.1211,0.0117 0.0562,0.002 0.13373,0.005 0.23437,0.006 0.20128,0.002 0.49807,0.002 0.9043,0 l 1.20117,-0.004 0.0898,-0.0898 0.0879,-0.0879 0.006,-2.12696 c 0.002,-0.71909 0.004,-1.23956 0.008,-1.58008 0.002,-0.14378 0.004,-0.23792 0.006,-0.31835 0.0267,0.0201 0.0501,0.0352 0.0801,0.0586 0.0966,0.0754 0.15208,0.11948 0.20313,0.14844 0.0511,0.029 0.10731,0.0391 0.15039,0.0391 0.0727,0 0.14494,-0.0266 0.19922,-0.0723 l 0.0918,-0.0762 0,-0.69531 c 0,-0.17891 2e-4,-0.34498 -0.002,-0.46875 -0.001,-0.0619 -0.003,-0.11272 -0.004,-0.15039 -7e-4,-0.0188 -9.6e-4,-0.0344 -0.002,-0.0469 -4.2e-4,-0.006 -9.5e-4,-0.0118 -0.002,-0.0176 -3.3e-4,-0.003 -9.5e-4,-0.008 -0.002,-0.0117 -7e-4,-0.004 -0.006,-0.019 -0.006,-0.0195 l 0,-0.002 c -5e-5,-1.3e-4 -0.008,-0.0154 -0.008,-0.0156 -1.2e-4,-1.7e-4 -0.004,-0.008 -0.006,-0.01 -0.003,-0.004 -0.004,-0.006 -0.006,-0.008 l -0.01,-0.01 c -0.006,-0.006 -0.0118,-0.0107 -0.0195,-0.0176 -0.0154,-0.0137 -0.0379,-0.0324 -0.0644,-0.0547 -0.0531,-0.0445 -0.12657,-0.10673 -0.21875,-0.18164 -0.18437,-0.14983 -0.43675,-0.35154 -0.71289,-0.57032 -1.45248,-1.15076 -2.34584,-1.85669 -2.88086,-2.27734 -0.26751,-0.21032 -0.44604,-0.34968 -0.56055,-0.4375 -0.0573,-0.0439 -0.0976,-0.0744 -0.12695,-0.0957 -0.0147,-0.0107 -0.0272,-0.0188 -0.0371,-0.0254 -0.01,-0.007 -0.0113,-0.0105 -0.0352,-0.0195 -0.0572,-0.0214 -0.11412,-0.0193 -0.16992,-0.004 z m 0.0723,0.69726 c 0.0145,0.0106 0.0265,0.0199 0.0469,0.0352 0.0643,0.0482 0.15729,0.1183 0.26953,0.20508 0.22449,0.17355 0.53029,0.41212 0.86328,0.67578 0.66651,0.52774 1.58763,1.25642 2.04688,1.61914 0.45901,0.36255 0.88566,0.70288 0.92773,0.73828 l 0.0625,0.0527 0,0.23632 c 0,0.0435 -9.5e-4,0.0628 -0.002,0.0957 -0.009,-0.007 -0.0134,-0.01 -0.0234,-0.0176 -0.10431,-0.0807 -0.25524,-0.19738 -0.43945,-0.3418 -0.36843,-0.28883 -0.87396,-0.68859 -1.42774,-1.12695 -0.5539,-0.43846 -1.0661,-0.8433 -1.44726,-1.14453 -0.38116,-0.30123 -0.62333,-0.49243 -0.65625,-0.51758 -0.0685,-0.0522 -0.14025,-0.0898 -0.22071,-0.0898 -0.0805,0 -0.15022,0.0376 -0.21875,0.0898 -0.0337,0.0256 -0.2751,0.21634 -0.65625,0.51758 -0.37397,0.29557 -0.87993,0.69406 -1.42187,1.12305 l -0.0273,0.0215 c -0.55378,0.43836 -1.05931,0.83812 -1.42774,1.12695 -0.18421,0.14442 -0.33318,0.26108 -0.4375,0.3418 -0.01,0.008 -0.0142,0.0105 -0.0234,0.0176 -7.3e-4,-0.0329 -0.002,-0.0522 -0.002,-0.0957 l 0,-0.23632 0.0605,-0.0527 c 0.042,-0.0354 0.47066,-0.37573 0.92969,-0.73828 0.45924,-0.36272 1.38036,-1.0914 2.04687,-1.61914 0.33299,-0.26366 0.63879,-0.50223 0.86328,-0.67578 0.11225,-0.0868 0.20329,-0.15692 0.26758,-0.20508 0.0204,-0.0153 0.0324,-0.0245 0.0469,-0.0352 z m 0,1.12305 0.002,0 c 0.0243,0.0185 0.0511,0.0403 0.0898,0.0703 0.0945,0.0732 0.22954,0.17854 0.39063,0.30469 0.32217,0.2523 0.75198,0.58933 1.18359,0.92969 0.43161,0.34036 0.86488,0.68339 1.19727,0.94726 0.16619,0.13194 0.30604,0.24429 0.4082,0.32618 0.0511,0.0409 0.0931,0.0731 0.12305,0.0977 0.03,0.0244 0.0525,0.0446 0.0508,0.043 l 0.0195,0.0176 -0.006,2.05859 -0.004,2.00391 -0.81836,0 -0.82031,0 -0.008,-1.05664 c -0.005,-0.55828 -0.009,-0.8482 -0.0156,-1.01953 -0.007,-0.17133 -0.0191,-0.23574 -0.0391,-0.30664 -0.1869,-0.66442 -0.65775,-1.13891 -1.30078,-1.30664 -0.27402,-0.0712 -0.61069,-0.073 -0.88281,-0.002 -0.43833,0.1144 -0.80994,0.38389 -1.0586,0.76368 -0.12082,0.18454 -0.1905,0.33477 -0.25586,0.55859 l -0.0527,0.17773 -0.01,1.27539 -0.008,0.91797 -0.8125,0.004 c -0.25,0.001 -0.47797,0.001 -0.64453,0 -0.0759,-6.4e-4 -0.13383,-0.003 -0.17969,-0.004 -4.9e-4,-0.0237 -9.5e-4,-0.0429 -0.002,-0.0762 -10e-4,-0.1074 -0.003,-0.26219 -0.004,-0.45312 -0.002,-0.38187 -0.006,-0.90614 -0.006,-1.48243 l 0,-2.05273 0.0195,-0.0176 c -0.002,0.002 0.0208,-0.0186 0.0508,-0.043 0.03,-0.0244 0.07,-0.0567 0.12109,-0.0977 0.10216,-0.0819 0.24397,-0.19424 0.41016,-0.32618 0.33238,-0.26386 0.76565,-0.60691 1.19726,-0.94726 0.4316,-0.34035 0.86143,-0.67739 1.1836,-0.92969 0.16108,-0.12615 0.29422,-0.23151 0.38867,-0.30469 0.0388,-0.0301 0.0675,-0.0518 0.0918,-0.0703 z"
         style="fill:#6369d1;fill-opacity:1;stroke:none;stroke-width:0.2;stroke-miterlimit:4;stroke-dasharray:none;stroke-opacity:1"
         inkscape:connector-curvature="0" />
    </g>
  </g>
</svg>
